<?xml version="1.0" encoding="UTF-8"?>
<!-- Full Neo-Wallet logo (SVG) — gradient shield + stylized N + keyhole accent -->
<svg xmlns="http://www.w3.org/2000/svg" viewBox="0 0 64 64" width="240" height="240" role="img" aria-labelledby="neoTitle neoDesc">
  <title id="neoTitle">Neo-Wallet logo</title>
  <desc id="neoDesc">Modern minimal shield with stylized N forming a secure lock impression</desc>

  <defs>
    <linearGradient id="nw-grad" x1="0" x2="1" y1="0" y2="1">
      <stop offset="0%" stop-color="#07B2A6"/>
      <stop offset="100%" stop-color="#0B6EA6"/>
    </linearGradient>
    <filter id="inner-shadow" x="-20%" y="-20%" width="140%" height="140%">
      <feOffset dx="0" dy="1" />
      <feGaussianBlur stdDeviation="1.2" result="blur"/>
      <feComposite in="SourceGraphic" in2="blur" operator="arithmetic" k2="-0.2" k3="1" />
    </filter>
  </defs>

  <g filter="url(#inner-shadow)">
    <path d="M32 4 C20 4 8 12 8 26 C8 40 18 52 32 58 C46 52 56 40 56 26 C56 12 44 4 32 4 Z" fill="url(#nw-grad)"/>
  </g>

  <path d="M32 4 C20 4 8 12 8 26 C8 40 18 52 32 58 C46 52 56 40 56 26 C56 12 44 4 32 4 Z" fill="none" stroke="#08324A" stroke-opacity="0.12" stroke-width="1.6"/>

  <g transform="translate(0,0)" stroke="#ffffff" stroke-width="3.2" stroke-linecap="round" stroke-linejoin="round" fill="none">
    <path d="M22 22 L22 42" />
    <path d="M22 22 L36 38" />
    <path d="M36 26 L36 42" />
  </g>

  <g transform="translate(0,0)" fill="#ffffff">
    <circle cx="30.8" cy="46" r="2.4"/>
    <rect x="29.2" y="48.2" width="3.2" height="3" rx="0.8"/>
  </g>
</svg>
